<?xml version="1.0" encoding="UTF-8"?> <svg xmlns="http://www.w3.org/2000/svg" id="Layer_1" data-name="Layer 1" viewBox="0 0 400 77.5"><defs><style>.cls-1{fill:#004c97;fill-rule:evenodd;}</style></defs><title>Artboard 1</title><path class="cls-1" d="M396.68,30.82c-1.92-6.77-5.68-11.76-10.17-16.07A49.75,49.75,0,0,0,378.9,9c-5.39-3.46-12.16-5.61-19.64-6.76A60.54,60.54,0,0,0,347,1.59a58,58,0,0,0-21.28,5.14,40.32,40.32,0,0,0-8.21,5c-.13.11-.28.14-.15.39.22.4.48.73.62,1.05a19.13,19.13,0,0,1,1.65,8.1,40.4,40.4,0,0,1-.21,5.38A19.1,19.1,0,0,1,318.26,31a19.25,19.25,0,0,1-4.54,6.61,18.44,18.44,0,0,1-7,4.3,10.75,10.75,0,0,1,3.55,6c.71,3.29.51,7.44.54,11.36,0,.26,0,.25.12.42a12.54,12.54,0,0,0,.84,1,47.55,47.55,0,0,0,20.8,12.64A59.56,59.56,0,0,0,349.4,76a59.2,59.2,0,0,0,23.82-4.67c9.18-4,16.56-9.8,21.07-18.55a31.94,31.94,0,0,0,3.13-10.08,29.69,29.69,0,0,0-.74-11.86M381.76,44.15a31.75,31.75,0,0,1-5.16,12.64,31.14,31.14,0,0,1-9,8.76,32.35,32.35,0,0,1-13,4.81,32.89,32.89,0,0,1-15.51-1.73c.4-.54.75-.91,1.13-1.35a53.33,53.33,0,0,0,3.44-4.15,61.69,61.69,0,0,0,3.8-6.31,28.25,28.25,0,0,0,5.95,2.27,15.54,15.54,0,0,0,7.26.36c4.35-1.11,5.35-5.82,4.57-11.36a31,31,0,0,0-1.64-6.57c-.75-2-1.75-3.71-2.63-5.56a37.74,37.74,0,0,1-3.62-11.77,4.64,4.64,0,0,1-.09-.93c0-.22.55-.48.87-.63,2.52-1.2,6.51-.18,8.72.54a36.89,36.89,0,0,1,4.25,1.67c1.34.63,2.56,1.41,3.94,2,0-.17-.15-.24-.24-.33a34.45,34.45,0,0,0-10.58-8.16A15,15,0,0,0,356.12,17a12.15,12.15,0,0,0-6.63,3,7.85,7.85,0,0,0-4.78-.74,11.59,11.59,0,0,0-4.1,1.58,24,24,0,0,0-5.88,5.47,57.58,57.58,0,0,0-6.64,10.4,25.75,25.75,0,0,0-1.79,3.88c.44-.07.73-.56,1-.89,2.08-2.43,3.93-5.19,6.15-7.53a34.09,34.09,0,0,1,4.22-3.62,7.27,7.27,0,0,1,5.88-1.67,5.52,5.52,0,0,1,4,3.82,16.61,16.61,0,0,1,.54,7,59.26,59.26,0,0,1-2.93,12.71c-.12,0-.25-.07-.33-.12a92.42,92.42,0,0,1-8.52-6.13,3.73,3.73,0,0,0-1.28-.87,5.9,5.9,0,0,0,.71,1.74,26.85,26.85,0,0,0,8,9.53c-1.75,4.72-3.78,9.17-5.79,13.63a31.66,31.66,0,0,1-15-12.91,32.37,32.37,0,0,1-3.94-10,34.49,34.49,0,0,1-.09-12.74A31.79,31.79,0,0,1,329,14.71,31.1,31.1,0,0,1,342.8,7.54c.95-.22,1.92-.42,2.93-.57a34.58,34.58,0,0,1,11.44.45A31.08,31.08,0,0,1,374,17.25a32.3,32.3,0,0,1,6.57,11.24,32.17,32.17,0,0,1,1.16,15.66M349.52,53c1.76-3.43,3.5-6.89,5.17-10.42,0,0,0,0,0,0a44.25,44.25,0,0,1,4.78,8,8.92,8.92,0,0,1,.87,3.37c0,1.55-1,2.2-2.69,2.09a13.69,13.69,0,0,1-4.36-1.25c-1.37-.56-2.63-1.22-3.8-1.8"></path><path class="cls-1" d="M16.46,4.91H68.7c-1.2,5.8-2.39,11.6-3.62,17.36H33.7c-.61,2.8-1.22,5.6-1.79,8.43,8.78,0,17.76,0,26.63,0q-1.63,8.08-3.32,16.11H28.59C26.72,55.4,25,64.14,23.12,72.66H2.29Q9.34,38.82,16.4,5s0-.08.06-.09"></path><path class="cls-1" d="M71.69,4.91H92.52c-2.56,12.27-5,24.52-7.63,36.85a36.3,36.3,0,0,0-1.1,7.77c0,2.87.82,5.07,2.51,6.36a10,10,0,0,0,7.26,1.38c5-.71,7.53-4.39,9.14-8.64a46.34,46.34,0,0,0,1.89-7c2.6-12.22,5.11-24.5,7.68-36.73,6.94,0,14,0,20.86,0-2.39,11.41-4.66,22.74-7.08,34.13-.81,3.79-1.46,7.61-2.37,11.36-3.74,15.46-13.64,23-31.07,23.81A48.42,48.42,0,0,1,80,73.2a28.6,28.6,0,0,1-9.71-4,17.71,17.71,0,0,1-8.13-12.46c-.13-1-.26-2.82-.24-3.2.09-1.24.2-2,.36-3.05.6-3.84,1.51-7.64,2.3-11.44q3.54-17,7.12-34s0-.08,0-.09"></path><path class="cls-1" d="M135.88,4.91H194.3c-1.21,5.79-2.39,11.59-3.61,17.36H171.92c-3.51,16.78-6.95,33.62-10.46,50.39h-20.8a7.48,7.48,0,0,1,.27-1.53c3.42-16.2,6.7-32.6,10.1-48.83-6.2-.07-12.52,0-18.77,0,1.2-5.79,2.39-11.6,3.62-17.36"></path><path class="cls-1" d="M197.11,4.91h20.83c-2.55,12.27-5,24.52-7.62,36.85a35.67,35.67,0,0,0-1.11,7.77c0,2.87.82,5.07,2.51,6.36A10,10,0,0,0,219,57.27c4.95-.71,7.52-4.39,9.14-8.64a48.83,48.83,0,0,0,1.89-7c2.59-12.22,5.1-24.5,7.67-36.73,6.95,0,14,0,20.86,0-2.38,11.41-4.66,22.74-7.08,34.13-.8,3.79-1.47,7.61-2.36,11.36-3.71,15.68-13.65,23-31.08,23.81a48.34,48.34,0,0,1-12.64-1,28.43,28.43,0,0,1-9.71-4,18.12,18.12,0,0,1-8.13-12.46,14.08,14.08,0,0,1-.24-3.2c.08-1.09.2-2,.36-3.05.59-3.84,1.51-7.64,2.3-11.44q3.54-17,7.11-34s0-.08,0-.09"></path><path class="cls-1" d="M261.72,4.91h27.22a118.8,118.8,0,0,1,13.27.33,21,21,0,0,1,10.07,3.53c3.84,2.83,6.12,7.7,5.83,14.52-.27,6.44-2.67,10.9-6.42,14a19.4,19.4,0,0,1-8.79,4c-.17,0-1,.13-.45.36a12,12,0,0,1,3.08,1.55c2.74,2.13,3.77,6.21,3.77,11.06,0,3.22-.15,6.56-.15,9.75s.13,6.3,1.07,8.72c-6.62,0-13.33,0-19.9,0-1-2.57-1-6.52-.6-9.68.19-1.59.44-3.16.63-4.75a12.06,12.06,0,0,0-.12-4.88c-.88-2.66-3.31-3.92-6.52-4.21s-7,0-10.63-.09c-1.66,7.87-3.32,15.74-4.93,23.64H247.7a3.28,3.28,0,0,1,.15-1C252.57,49.51,257,27.16,261.66,5c0,0,0-.08.06-.09m14.37,29.62h6.61a58.06,58.06,0,0,0,6.51-.12C293,34,296,32.27,297,28.94a6.44,6.44,0,0,0-.68-5.32,6.09,6.09,0,0,0-4.19-2.45,41.69,41.69,0,0,0-6.49-.15H279c-1,4.43-1.91,9-2.9,13.51"></path><path class="cls-1" d="M347.16,8a4.28,4.28,0,0,1,4.12,2.45,4.33,4.33,0,0,1-5.67,5.8,4.25,4.25,0,0,1-2.58-4,4.51,4.51,0,0,1,1.2-3A4.29,4.29,0,0,1,347.16,8"></path></svg> 