<?xml version="1.0" encoding="utf-8"?>
<!-- Generator: Adobe Illustrator 15.0.0, SVG Export Plug-In . SVG Version: 6.00 Build 0)  -->
<!DOCTYPE svg PUBLIC "-//W3C//DTD SVG 1.1//EN" "http://www.w3.org/Graphics/SVG/1.1/DTD/svg11.dtd">
<svg version="1.1" id="Capa_1" xmlns="http://www.w3.org/2000/svg" xmlns:xlink="http://www.w3.org/1999/xlink" x="0px" y="0px"
	 width="250px" height="74px" viewBox="0 0 250 74" enable-background="new 0 0 250 74" xml:space="preserve">
<g>
	<path fill="#00B1E5" d="M85.214,37.316c-0.697,5.301-5.478,9.411-11.292,9.411c-5.815,0-10.597-4.11-11.292-9.411h-7.441
		c0.721,9.158,8.826,16.383,18.733,16.383s18.009-7.225,18.734-16.383H85.214z"/>
	<polygon fill="#00B1E5" points="44.078,30.521 30.149,30.521 30.149,20.301 22,20.301 22,52.324 30.149,52.324 30.149,37.316 
		44.078,37.316 44.078,52.324 52.178,52.324 52.178,20.301 44.078,20.301 	"/>
	<path fill="#00B1E5" d="M214.447,28.088c-7.491,0-13.699,4.987-13.699,12.426c0,7.488,6.208,12.476,13.699,12.476
		c7.342,0,13.553-4.987,13.553-12.476C228,33.075,221.789,28.088,214.447,28.088 M214.447,46.632c-3.205,0-6.108-2.396-6.108-6.118
		c0-3.672,2.903-6.118,6.108-6.118c3.055,0,5.963,2.446,5.963,6.118C220.41,44.235,217.502,46.632,214.447,46.632"/>
	<path fill="#00B1E5" d="M186.728,27.993c-3.66,0-5.727,0.705-7.596,2.586h-6.628v21.75h7.887v-10.97
		c0-4.563,2.017-6.588,5.122-6.588c2.514,0,4.239,1.885,4.239,4.66v12.897h7.835V37.832
		C197.587,31.899,192.76,27.993,186.728,27.993"/>
	<path fill="#00B1E5" d="M153.195,27.993c-7.33,0-12.795,5.082-12.795,12.521c0,7.488,5.515,12.524,12.071,12.524
		c3.2,0,5.767-0.94,7.689-2.591v1.882h7.886v-21.75h-6.147C159.766,28.957,157.014,27.993,153.195,27.993 M154.097,46.632
		c-3.446,0-5.961-2.446-5.961-6.118c0-3.622,2.515-6.118,5.961-6.118c3.203,0,6.064,2.496,6.064,6.118
		C160.161,44.186,157.3,46.632,154.097,46.632"/>
	<path fill="#00B1E5" d="M126.928,27.993c-3.846,0-7.039,1.555-9.008,4.002c-1.676-2.592-4.633-4.002-8.081-4.002
		c-3.202,0-6.011,0.799-7.685,2.586h-6.626v21.75h7.885V40.748c0-3.952,1.872-5.977,4.732-5.977c2.365,0,4.189,1.691,4.189,4.381
		v13.177h7.886V40.748c0-3.952,1.921-5.977,4.829-5.977c2.314,0,4.139,1.691,4.139,4.381v13.177h7.833V37.552
		C137.02,31.805,132.197,27.993,126.928,27.993"/>
</g>
</svg>
